<mxfile host="app.diagrams.net" agent="Mozilla/5.0 (Macintosh; Intel Mac OS X 10_15_7) AppleWebKit/605.1.15 (KHTML, like Gecko) Version/17.4 Safari/605.1.15" version="25.0.1">
  <diagram name="第 1 页" id="9KXNTyVhZBJHJeUFbM9W">
    <mxGraphModel dx="1434" dy="827" grid="0" gridSize="10" guides="1" tooltips="1" connect="1" arrows="1" fold="1" page="1" pageScale="1" pageWidth="827" pageHeight="1169" math="0" shadow="0">
      <root>
        <mxCell id="0" />
        <mxCell id="1" parent="0" />
        <mxCell id="osxYFuAsuxdxEfaMuSmq-10" style="edgeStyle=orthogonalEdgeStyle;rounded=0;orthogonalLoop=1;jettySize=auto;html=1;exitX=0.5;exitY=1;exitDx=0;exitDy=0;entryX=0.5;entryY=0;entryDx=0;entryDy=0;" edge="1" parent="1" source="osxYFuAsuxdxEfaMuSmq-1" target="osxYFuAsuxdxEfaMuSmq-2">
          <mxGeometry relative="1" as="geometry" />
        </mxCell>
        <mxCell id="osxYFuAsuxdxEfaMuSmq-1" value="&lt;font style=&quot;font-size: 18px;&quot;&gt;开始&lt;/font&gt;" style="ellipse;whiteSpace=wrap;html=1;" vertex="1" parent="1">
          <mxGeometry x="380" y="110" width="90" height="40" as="geometry" />
        </mxCell>
        <mxCell id="osxYFuAsuxdxEfaMuSmq-11" style="edgeStyle=orthogonalEdgeStyle;rounded=0;orthogonalLoop=1;jettySize=auto;html=1;exitX=0.5;exitY=1;exitDx=0;exitDy=0;entryX=0.5;entryY=0;entryDx=0;entryDy=0;" edge="1" parent="1" source="osxYFuAsuxdxEfaMuSmq-2" target="osxYFuAsuxdxEfaMuSmq-3">
          <mxGeometry relative="1" as="geometry" />
        </mxCell>
        <mxCell id="osxYFuAsuxdxEfaMuSmq-2" value="&lt;span style=&quot;text-align: start; font-size: medium;&quot;&gt;创建单选按钮组&lt;/span&gt;" style="rounded=1;whiteSpace=wrap;html=1;" vertex="1" parent="1">
          <mxGeometry x="363.75" y="180" width="122.5" height="40" as="geometry" />
        </mxCell>
        <mxCell id="osxYFuAsuxdxEfaMuSmq-12" style="edgeStyle=orthogonalEdgeStyle;rounded=0;orthogonalLoop=1;jettySize=auto;html=1;exitX=0.5;exitY=1;exitDx=0;exitDy=0;entryX=0.5;entryY=0;entryDx=0;entryDy=0;" edge="1" parent="1" source="osxYFuAsuxdxEfaMuSmq-3" target="osxYFuAsuxdxEfaMuSmq-5">
          <mxGeometry relative="1" as="geometry" />
        </mxCell>
        <mxCell id="osxYFuAsuxdxEfaMuSmq-3" value="&lt;span style=&quot;text-align: start; font-size: medium;&quot;&gt;显示默认图片&lt;/span&gt;" style="rounded=1;whiteSpace=wrap;html=1;" vertex="1" parent="1">
          <mxGeometry x="363.74" y="252" width="122.5" height="40" as="geometry" />
        </mxCell>
        <mxCell id="osxYFuAsuxdxEfaMuSmq-13" style="edgeStyle=orthogonalEdgeStyle;rounded=0;orthogonalLoop=1;jettySize=auto;html=1;exitX=0.5;exitY=1;exitDx=0;exitDy=0;entryX=0.5;entryY=0;entryDx=0;entryDy=0;" edge="1" parent="1" source="osxYFuAsuxdxEfaMuSmq-5" target="osxYFuAsuxdxEfaMuSmq-7">
          <mxGeometry relative="1" as="geometry" />
        </mxCell>
        <mxCell id="osxYFuAsuxdxEfaMuSmq-5" value="&lt;span style=&quot;text-align: start; font-size: medium;&quot;&gt;显示当前选中动物标签&lt;/span&gt;" style="rounded=1;whiteSpace=wrap;html=1;" vertex="1" parent="1">
          <mxGeometry x="336.87" y="323" width="176.25" height="40" as="geometry" />
        </mxCell>
        <mxCell id="osxYFuAsuxdxEfaMuSmq-14" style="edgeStyle=orthogonalEdgeStyle;rounded=0;orthogonalLoop=1;jettySize=auto;html=1;exitX=0.5;exitY=1;exitDx=0;exitDy=0;entryX=0.5;entryY=0;entryDx=0;entryDy=0;" edge="1" parent="1" source="osxYFuAsuxdxEfaMuSmq-7" target="osxYFuAsuxdxEfaMuSmq-8">
          <mxGeometry relative="1" as="geometry" />
        </mxCell>
        <mxCell id="osxYFuAsuxdxEfaMuSmq-7" value="&lt;span style=&quot;text-align: start; font-size: medium;&quot;&gt;创建功能按钮&lt;/span&gt;" style="rounded=1;whiteSpace=wrap;html=1;" vertex="1" parent="1">
          <mxGeometry x="368.42" y="394" width="113.13" height="40" as="geometry" />
        </mxCell>
        <mxCell id="osxYFuAsuxdxEfaMuSmq-15" style="edgeStyle=orthogonalEdgeStyle;rounded=0;orthogonalLoop=1;jettySize=auto;html=1;exitX=0.5;exitY=1;exitDx=0;exitDy=0;" edge="1" parent="1" source="osxYFuAsuxdxEfaMuSmq-8">
          <mxGeometry relative="1" as="geometry">
            <mxPoint x="425" y="520" as="targetPoint" />
          </mxGeometry>
        </mxCell>
        <mxCell id="osxYFuAsuxdxEfaMuSmq-8" value="&lt;div style=&quot;text-align: start;&quot;&gt;&lt;font size=&quot;3&quot;&gt;用户交互&lt;/font&gt;&lt;/div&gt;" style="rounded=1;whiteSpace=wrap;html=1;" vertex="1" parent="1">
          <mxGeometry x="389.21000000000004" y="461" width="71.57" height="40" as="geometry" />
        </mxCell>
        <mxCell id="osxYFuAsuxdxEfaMuSmq-9" value="&lt;font size=&quot;4&quot;&gt;结束&lt;/font&gt;" style="ellipse;whiteSpace=wrap;html=1;" vertex="1" parent="1">
          <mxGeometry x="379.99" y="523" width="90" height="40" as="geometry" />
        </mxCell>
      </root>
    </mxGraphModel>
  </diagram>
</mxfile>
